<?xml version="1.0" encoding="utf-8"?>
<!-- Generator: Adobe Illustrator 21.0.1, SVG Export Plug-In . SVG Version: 6.00 Build 0)  -->
<svg version="1.1"
	 id="Layer_1" xmlns:cc="http://creativecommons.org/ns#" xmlns:dc="http://purl.org/dc/elements/1.1/" xmlns:rdf="http://www.w3.org/1999/02/22-rdf-syntax-ns#" xmlns:svg="http://www.w3.org/2000/svg"
	 xmlns="http://www.w3.org/2000/svg" xmlns:xlink="http://www.w3.org/1999/xlink" x="0px" y="0px" viewBox="0 0 41.1 43.9"
	 style="enable-background:new 0 0 41.1 43.9;" xml:space="preserve">
<style type="text/css">
	.st0{fill:#12001A;}
	.st1{fill:#4EE053;}
	.st2{fill:none;stroke:#DB168D;stroke-width:2;stroke-miterlimit:10;}
	.st3{fill:#12001A;stroke:#12001A;stroke-width:3;stroke-linejoin:round;stroke-miterlimit:10;}
	.st4{fill:#12001A;stroke:#12001A;stroke-width:0.5;stroke-miterlimit:10;}
	.st5{fill:none;stroke:#12001A;stroke-width:3;stroke-linejoin:round;stroke-miterlimit:10;}
	.st6{fill:none;stroke:#12001A;stroke-width:3;stroke-miterlimit:10;}
</style>
<path class="st0" d="M-54.1,11.4c-2.2,0-4,1.8-4,4v37c0,2.2,1.8,4,4,4h30c2.2,0,4-1.8,4-4v-37c0-2.2-1.8-4-4-4H-54.1z M-54.1,13.4
	h30c1.1,0,2,0.9,2,2v37c0,1.1-0.9,2-2,2h-30c-1.1,0-2-0.9-2-2v-37C-56.1,14.2-55.3,13.4-54.1,13.4z"/>
<path class="st1" d="M-28.2,25.4c-0.3,0-0.7,0.1-0.9,0.4l-4.4,4.9l-2-1.6c-0.5-0.4-1.2-0.3-1.6,0.2c-0.4,0.5-0.3,1.2,0.2,1.6
	l2.9,2.3c0.5,0.4,1.2,0.3,1.6-0.1l5.1-5.7c0.4-0.5,0.4-1.2-0.1-1.6C-27.7,25.5-28,25.4-28.2,25.4z"/>
<path class="st0" d="M-46.9,25.4c-2.2,0-4,1.8-4,4s1.8,4,4,4s4-1.8,4-4S-44.7,25.4-46.9,25.4z M-46.9,31.4c-1.1,0-2-0.9-2-2
	s0.9-2,2-2s2,0.9,2,2S-45.8,31.4-46.9,31.4z"/>
<path class="st2" d="M-33.5,37.6c0,3.1-2.5,5.6-5.6,5.6c-3.1,0-5.6-2.5-5.6-5.6"/>
<path class="st3" d="M-48.5,11.1h5.6c0.6,0,1.1-0.4,1.3-0.9c0.4-1.1,1.4-1.8,2.5-1.8c1.1,0,2.1,0.7,2.5,1.8c0.2,0.5,0.7,0.9,1.3,0.9
	h5.6c0.7,0,1.3,0.6,1.3,1.3v1.3h-21.4v-1.3C-49.8,11.7-49.2,11.1-48.5,11.1z"/>
<path class="st4" d="M31.4,15.3c-0.3,0-0.7,0.1-0.9,0.4l-4.4,4.9l-2-1.6c-0.5-0.4-1.2-0.3-1.6,0.2c-0.4,0.5-0.3,1.2,0.2,1.6l2.9,2.3
	c0.5,0.4,1.2,0.3,1.6-0.1l5.1-5.7c0.4-0.5,0.4-1.2-0.1-1.6C32,15.4,31.7,15.3,31.4,15.3z"/>
<path class="st4" d="M12.8,15.3c-2.2,0-4,1.8-4,4s1.8,4,4,4s4-1.8,4-4S15,15.3,12.8,15.3z M12.8,21.3c-1.1,0-2-0.9-2-2s0.9-2,2-2
	s2,0.9,2,2S13.9,21.3,12.8,21.3z"/>
<path class="st5" d="M26.1,27.5c0,3.1-2.5,5.6-5.6,5.6s-5.6-2.5-5.6-5.6"/>
<path class="st6" d="M32.5,6.3h2.7c2.3,0,4.3,1.9,4.3,4.3v27.5c0,2.3-1.9,4.3-4.3,4.3H5.8c-2.3,0-4.3-1.9-4.3-4.3V10.6
	c0-2.3,1.9-4.3,4.3-4.3h2.5"/>
<circle class="st0" cx="20.5" cy="3.3" r="3.8"/>
<path class="st0" d="M30.8,7.8H10.2V5.5c0-1.4,1.2-2.6,2.6-2.6h15.3c1.4,0,2.6,1.2,2.6,2.6V7.8z"/>
</svg>
